<svg xmlns="http://www.w3.org/2000/svg" width="1008" height="640" viewBox="0 0 1008 640">
  <defs>
    <filter id="shadow" x="-20%" y="-20%" width="140%" height="140%">
      <feDropShadow dx="0" dy="2" stdDeviation="5" flood-color="#000000" flood-opacity="0.16"/>
    </filter>
    <style>
      .font { font-family: Arial, Helvetica, sans-serif; fill:#2b2f33; }
      .title { font-size:28px; fill:#ffffff; }
      .h2 { font-size:24px; }
      .body { font-size:21px; }
      .disabled { font-size:21px; fill:#777777; text-decoration:line-through; }
    </style>
  </defs>

  <rect width="1008" height="640" fill="#f6f6f6"/>

  <rect x="1" y="4" width="1000" height="78" rx="2" fill="#0b7dbc"/>
  <text x="21" y="51" class="font title">Questionnaires</text>
  <text x="965" y="49" font-family="Arial, Helvetica, sans-serif" font-size="32" font-weight="bold" fill="#86c5e7">×</text>

  <rect x="21" y="102" width="960" height="157" rx="4" fill="#ffffff" filter="url(#shadow)"/>
  <text x="46" y="153" class="font h2">Télécontrôle assuré(e)</text>
  <text x="46" y="186" class="font body">Nom: Convocation Service médical</text>
  <text x="46" y="216" class="font body">Date: 31.08.2026 12:00 (heure de Paris)</text>

  <rect x="21" y="270" width="960" height="344" rx="4" fill="#ffffff" filter="url(#shadow)"/>
  <text x="46" y="321" class="font h2">Questions préalables à la réunion</text>
  <text x="46" y="363" class="font body">Objet du télécontrôle</text>

  <g class="font body">
    <circle cx="53" cy="392" r="7" fill="none" stroke="#7b7b7b" stroke-width="1.4"/>
    <text x="71" y="401">Arrêt de travail</text>

    <circle cx="53" cy="423" r="7" fill="none" stroke="#7b7b7b" stroke-width="1.4"/>
    <text x="71" y="432">Reconnaissance maladie professionnelle</text>

    <circle cx="53" cy="453" r="7" fill="none" stroke="#7b7b7b" stroke-width="1.4"/>
    <text x="71" y="462">Demande d’accord préalable</text>

    <circle cx="53" cy="483" r="7" fill="none" stroke="#7b7b7b" stroke-width="1.4"/>
    <text x="71" y="492">Autre</text>
  </g>

  <text x="71" y="528" class="font disabled">Demande d’invalidité</text>
  <text x="71" y="562" class="font disabled">Demande d’inaptitude</text>
  <text x="71" y="596" class="font disabled">Demande de rechute</text>
</svg>